<svg width="256" height="116" viewBox="0 0 256 116" fill="none" xmlns="http://www.w3.org/2000/svg">
<path fill-rule="evenodd" clip-rule="evenodd" d="M168.77 65.3516L203.793 65.3516L203.793 67.3516L168.77 67.3516L168.77 65.3516Z" fill="#409967"/>
<path fill-rule="evenodd" clip-rule="evenodd" d="M87.0044 37.2245C87.1977 36.7072 87.7738 36.4444 88.2911 36.6377C97.4767 40.0692 114.915 53.7445 112.234 81.0588C112.18 81.6085 111.691 82.0103 111.141 81.9563C110.592 81.9024 110.19 81.4131 110.244 80.8634C112.817 54.6474 96.1268 41.6999 87.5912 38.5113C87.0739 38.318 86.8111 37.7419 87.0044 37.2245Z" fill="#409967"/>
<path fill-rule="evenodd" clip-rule="evenodd" d="M79.6328 51.0332C78.8855 49.5983 76.8324 49.5983 76.0851 51.0332L69.7917 63.1174C69.5366 63.6073 68.9327 63.7976 68.4428 63.5425C67.953 63.2874 67.7627 62.6835 68.0178 62.1936L74.3112 50.1094C75.8058 47.2396 79.9121 47.2396 81.4067 50.1094L90.3593 67.3C90.6144 67.7898 90.4241 68.3937 89.9342 68.6488C89.4444 68.9039 88.8405 68.7136 88.5854 68.2238L79.6328 51.0332ZM66.3549 67.5515C66.8448 67.8067 67.0351 68.4105 66.7799 68.9004L56.2259 89.1656C55.5325 90.497 56.4986 92.0894 57.9998 92.0894H70.6279C71.1802 92.0894 71.6279 92.5371 71.6279 93.0894C71.6279 93.6417 71.1802 94.0894 70.6279 94.0894H57.9998C54.9973 94.0894 53.0652 90.9047 54.4521 88.2417L65.0061 67.9766C65.2612 67.4867 65.8651 67.2964 66.3549 67.5515ZM92.9148 74.372C93.4047 74.1169 94.0085 74.3072 94.2637 74.7971L101.265 88.2418C102.652 90.9047 100.72 94.0894 97.7177 94.0894H77.8587C77.3064 94.0894 76.8587 93.6417 76.8587 93.0894C76.8587 92.5371 77.3064 92.0894 77.8587 92.0894H97.7177C99.2189 92.0894 100.185 90.497 99.4916 89.1656L92.4898 75.7209C92.2347 75.231 92.425 74.6271 92.9148 74.372Z" fill="#409967"/>
<path fill-rule="evenodd" clip-rule="evenodd" d="M90.7347 69.4663L82.8843 67.6325C82.3465 67.5068 82.0123 66.969 82.138 66.4312C82.2636 65.8934 82.8014 65.5593 83.3392 65.6849L89.242 67.0638L90.6205 61.1612C90.7461 60.6234 91.284 60.2893 91.8218 60.4149C92.3596 60.5405 92.6937 61.0783 92.5681 61.6161L90.7347 69.4663Z" fill="#409967"/>
<path fill-rule="evenodd" clip-rule="evenodd" d="M76.1711 93.0901L81.8717 87.3896C82.2622 86.999 82.8954 86.999 83.2859 87.3896C83.6764 87.7801 83.6764 88.4133 83.2859 88.8038L78.9996 93.09L83.2859 97.3759C83.6764 97.7664 83.6764 98.3995 83.2859 98.7901C82.8954 99.1806 82.2622 99.1807 81.8717 98.7901L76.1711 93.0901Z" fill="#409967"/>
<path fill-rule="evenodd" clip-rule="evenodd" d="M67.0123 66.5873L69.0988 74.3743C69.2418 74.9078 68.9252 75.4561 68.3917 75.5991C67.8582 75.742 67.3099 75.4254 67.167 74.892L65.5981 69.0369L59.7433 70.6059C59.2099 70.7489 58.6615 70.4323 58.5186 69.8989C58.3756 69.3654 58.6922 68.817 59.2256 68.6741L67.0123 66.5873Z" fill="#409967"/>
<path fill-rule="evenodd" clip-rule="evenodd" d="M89.4351 19.995L93.7787 3.04458L87.2917 5.18449C86.0401 5.59735 84.6762 5.49939 83.4965 4.91191L78.5656 2.45642C78.2849 2.31661 77.9548 2.31661 77.6741 2.45642L72.7432 4.91191C71.5635 5.49939 70.1996 5.59735 68.948 5.18449L62.461 3.04458L66.8045 19.995H89.4351ZM90.9873 21.995L95.7161 3.54104C96.1084 2.00985 94.6532 0.650078 93.1521 1.14525L86.6651 3.28517C85.9142 3.53288 85.0958 3.4741 84.388 3.12162L79.4571 0.666121C78.6149 0.24671 77.6247 0.246709 76.7825 0.666121L71.8517 3.12162C71.1438 3.4741 70.3255 3.53288 69.5745 3.28517L63.0875 1.14525C61.5864 0.650078 60.1312 2.00984 60.5236 3.54104L65.2524 21.995H90.9873Z" fill="#395244"/>
<path fill-rule="evenodd" clip-rule="evenodd" d="M89.5146 22.0771H66.7227V29.0404H89.5146V22.0771ZM64.7227 20.0771V31.0404H91.5146V20.0771H64.7227Z" fill="#395244"/>
<path fill-rule="evenodd" clip-rule="evenodd" d="M65.3061 30.9355L45.8121 45.9009C39.9419 50.4073 36.7308 57.5632 37.2665 64.9442L38.7035 84.7437C38.9751 88.4856 38.4337 92.242 37.1164 95.7549L33.3293 105.854C32.1036 109.123 34.52 112.61 38.011 112.61H117.709C121.2 112.61 123.617 109.123 122.391 105.854L118.604 95.7549C117.287 92.242 116.745 88.4856 117.017 84.7437L118.454 64.9442C118.99 57.5632 115.778 50.4073 109.908 45.9009L90.4142 30.9355H65.3061ZM91.0934 28.9355H64.627L44.5942 44.3145C38.1904 49.2306 34.6873 57.0369 35.2717 65.089L36.7088 84.8885C36.9595 88.3426 36.4597 91.81 35.2437 95.0527L31.4566 105.152C29.7406 109.728 33.1236 114.61 38.011 114.61H117.709C122.597 114.61 125.98 109.728 124.264 105.152L120.477 95.0526C119.261 91.81 118.761 88.3426 119.012 84.8885L120.449 65.089C121.033 57.0369 117.53 49.2306 111.126 44.3145L91.0934 28.9355Z" fill="#395244"/>
<path fill-rule="evenodd" clip-rule="evenodd" d="M255.637 114.608L3.06791e-07 114.608L0 112.608L255.637 112.608L255.637 114.608Z" fill="#395244"/>
<path fill-rule="evenodd" clip-rule="evenodd" d="M134.154 62.998V66.5983C134.154 67.0799 133.891 67.5228 133.467 67.7522C130.009 69.6257 127.855 73.2425 127.855 77.1752V96.0886C127.855 96.3556 127.937 96.6163 128.088 96.8362L128.919 98.0441C129.774 99.2864 129.774 100.927 128.919 102.17C128.226 103.176 127.855 104.369 127.855 105.591V110.15C127.855 110.755 128.096 111.335 128.524 111.763C128.952 112.191 129.532 112.431 130.137 112.431H130.939C131.184 112.431 131.418 112.334 131.591 112.161C132.733 111.02 134.583 111.02 135.724 112.161C135.897 112.334 136.132 112.431 136.376 112.431H137.268C137.513 112.431 137.748 112.334 137.921 112.161C139.062 111.02 140.912 111.02 142.053 112.161C142.226 112.334 142.461 112.431 142.706 112.431H143.108C143.61 112.431 144.091 112.232 144.446 111.877L144.56 111.763C144.988 111.335 145.228 110.755 145.228 110.15V105.591C145.228 104.369 144.857 103.176 144.164 102.17C143.309 100.927 143.309 99.2864 144.164 98.0441L144.983 96.8542C145.143 96.6226 145.228 96.348 145.228 96.0668V76.8491C145.228 73.0904 143.222 69.6175 139.967 67.7392C139.562 67.5057 139.313 67.0741 139.313 66.607V62.998H141.313V66.2143C144.983 68.492 147.228 72.5106 147.228 76.8491V96.0668C147.228 96.7529 147.02 97.4229 146.631 97.9881L145.812 99.178C145.427 99.7374 145.427 100.476 145.812 101.036C146.734 102.376 147.228 103.964 147.228 105.591V110.15C147.228 111.285 146.777 112.374 145.974 113.177L145.86 113.291C145.13 114.021 144.14 114.431 143.108 114.431H142.706C141.931 114.431 141.187 114.124 140.639 113.576C140.279 113.215 139.695 113.215 139.335 113.576C138.787 114.124 138.043 114.431 137.268 114.431H136.376C135.601 114.431 134.858 114.124 134.31 113.576C133.95 113.215 133.366 113.215 133.006 113.576C132.458 114.124 131.714 114.431 130.939 114.431H130.137C129.002 114.431 127.912 113.98 127.11 113.177C126.307 112.374 125.855 111.285 125.855 110.15V105.591C125.855 103.964 126.349 102.376 127.272 101.036C127.657 100.476 127.657 99.7374 127.272 99.178L126.44 97.9701C126.059 97.4166 125.855 96.7605 125.855 96.0886V77.1752C125.855 72.6466 128.262 68.471 132.154 66.1964V62.998H134.154Z" fill="#395244"/>
<path fill-rule="evenodd" clip-rule="evenodd" d="M134.198 70.1824C134.589 70.5728 134.589 71.206 134.199 71.5966C133.568 72.2275 132.202 74.0684 131.929 76.1302C131.856 76.6777 131.354 77.0627 130.806 76.99C130.259 76.9174 129.874 76.4147 129.946 75.8672C130.298 73.2173 131.973 70.9946 132.784 70.1827C133.175 69.7921 133.808 69.7919 134.198 70.1824Z" fill="#409967"/>
<path fill-rule="evenodd" clip-rule="evenodd" d="M145.206 81.9229L127.883 81.9229L127.883 79.9229L145.206 79.9229L145.206 81.9229Z" fill="#409967"/>
<path fill-rule="evenodd" clip-rule="evenodd" d="M166.011 78.6122L149.843 84.8324L149.125 82.9658L165.293 76.7456L166.011 78.6122Z" fill="#409967"/>
<path fill-rule="evenodd" clip-rule="evenodd" d="M145.206 95.0586L127.883 95.0586L127.883 93.0586L145.206 93.0586L145.206 95.0586Z" fill="#409967"/>
<path fill-rule="evenodd" clip-rule="evenodd" d="M170.731 90.872L154.562 97.0922L153.844 95.2256L170.013 89.0054L170.731 90.872Z" fill="#409967"/>
<path fill-rule="evenodd" clip-rule="evenodd" d="M136.542 89.5141C137.659 89.5141 138.565 88.6085 138.565 87.4914C138.565 86.3743 137.659 85.4688 136.542 85.4688C135.425 85.4688 134.52 86.3743 134.52 87.4914C134.52 88.6085 135.425 89.5141 136.542 89.5141ZM136.542 91.5141C138.764 91.5141 140.565 89.7131 140.565 87.4914C140.565 85.2698 138.764 83.4688 136.542 83.4688C134.321 83.4688 132.52 85.2698 132.52 87.4914C132.52 89.7131 134.321 91.5141 136.542 91.5141Z" fill="#F9EA7E"/>
<path fill-rule="evenodd" clip-rule="evenodd" d="M160.648 88.8091C161.69 88.408 162.21 87.2377 161.809 86.1951C161.408 85.1525 160.238 84.6325 159.195 85.0336C158.153 85.4347 157.633 86.605 158.034 87.6476C158.435 88.6902 159.605 89.2102 160.648 88.8091ZM161.366 90.6757C163.439 89.878 164.474 87.5505 163.676 85.477C162.878 83.4035 160.551 82.3692 158.477 83.1669C156.404 83.9647 155.369 86.2922 156.167 88.3657C156.965 90.4392 159.292 91.4735 161.366 90.6757Z" fill="#F9EA7E"/>
<path fill-rule="evenodd" clip-rule="evenodd" d="M140.085 59.043L133.257 59.043V61.4195L140.085 61.4195V59.043ZM133.257 57.043C132.153 57.043 131.257 57.9384 131.257 59.043V61.4195C131.257 62.5241 132.153 63.4195 133.257 63.4195H140.085C141.19 63.4195 142.085 62.5241 142.085 61.4195V59.043C142.085 57.9384 141.19 57.043 140.085 57.043H133.257Z" fill="#395244"/>
<path fill-rule="evenodd" clip-rule="evenodd" d="M153.016 59.0982L146.643 61.5499L147.497 63.7679L153.869 61.3163L153.016 59.0982ZM145.925 59.6832C144.894 60.0799 144.38 61.2371 144.777 62.268L145.63 64.486C146.027 65.5169 147.184 66.0311 148.215 65.6345L154.587 63.1829C155.618 62.7863 156.132 61.629 155.736 60.5981L154.883 58.3801C154.486 57.3492 153.329 56.835 152.298 57.2316L145.925 59.6832Z" fill="#395244"/>
<path fill-rule="evenodd" clip-rule="evenodd" d="M172.921 48.502H185.96L186.11 48.5505C189.581 49.6729 194.732 52.3232 199.031 56.6602C203.345 61.0128 206.832 67.1008 206.832 75.0497V111.434C206.832 113.092 205.488 114.431 203.832 114.431H170.591C169.033 114.431 167.77 113.168 167.77 111.61H169.77C169.77 112.064 170.138 112.431 170.591 112.431H203.832C204.386 112.431 204.832 111.984 204.832 111.434V75.0497C204.832 67.7418 201.642 62.1355 197.611 58.0682C193.625 54.0475 188.848 51.5665 185.642 50.502H173.976L173.439 51.286C171.049 54.779 169.77 58.9128 169.77 63.1453V83.1268H167.77V63.1453C167.77 58.5097 169.171 53.9822 171.789 50.1566L172.921 48.502Z" fill="#395244"/>
<path fill-rule="evenodd" clip-rule="evenodd" d="M176.703 106.373H204.796V108.373H176.703V106.373Z" fill="#409967"/>
<path fill-rule="evenodd" clip-rule="evenodd" d="M197.676 101.608C197.676 101.056 198.123 100.608 198.676 100.608H204.792V102.608H198.676C198.123 102.608 197.676 102.161 197.676 101.608Z" fill="#409967"/>
<path fill-rule="evenodd" clip-rule="evenodd" d="M200.359 96.8037C200.359 96.2514 200.807 95.8037 201.359 95.8037L204.79 95.8037L204.79 97.8037L201.359 97.8037C200.807 97.8037 200.359 97.356 200.359 96.8037Z" fill="#409967"/>
<path fill-rule="evenodd" clip-rule="evenodd" d="M186.27 76.1956L185.224 78.3661C184.787 79.2734 183.923 79.9006 182.925 80.0362L180.538 80.3605L182.279 82.0264C183.006 82.7226 183.336 83.7375 183.157 84.7285L182.727 87.0996L184.85 85.9585C185.737 85.4816 186.804 85.4816 187.691 85.9585L189.813 87.0996L189.384 84.7285C189.204 83.7375 189.534 82.7226 190.262 82.0264L192.003 80.3605L189.615 80.0362C188.617 79.9006 187.754 79.2734 187.316 78.3661L186.27 76.1956ZM187.171 73.4584C186.807 72.704 185.733 72.704 185.369 73.4584L183.422 77.4977C183.276 77.8001 182.989 78.0092 182.656 78.0544L178.213 78.658C177.383 78.7707 177.051 79.7925 177.656 80.3714L180.896 83.4714C181.139 83.7035 181.248 84.0418 181.189 84.3722L180.39 88.7845C180.24 89.6086 181.11 90.2401 181.847 89.8435L185.797 87.7201C186.092 87.5611 186.448 87.5611 186.744 87.7201L190.693 89.8435C191.431 90.2401 192.3 89.6086 192.151 88.7845L191.352 84.3722C191.292 84.0418 191.402 83.7035 191.644 83.4714L194.884 80.3714C195.489 79.7925 195.157 78.7707 194.328 78.658L189.884 78.0544C189.552 78.0092 189.264 77.8001 189.118 77.4977L187.171 73.4584Z" fill="#F9EA7E"/>
<path fill-rule="evenodd" clip-rule="evenodd" d="M184.275 42.5576L174.906 42.5576V48.5999H184.275V42.5576ZM174.906 40.5576C173.801 40.5576 172.906 41.453 172.906 42.5576V50.5999H186.275V42.5576C186.275 41.453 185.38 40.5576 184.275 40.5576H174.906Z" fill="#395244"/>
<path fill-rule="evenodd" clip-rule="evenodd" d="M148.898 64.9176L150.191 68.2777C150.364 68.7272 150.277 69.2353 149.964 69.6015C147.41 72.5916 146.698 76.7406 148.11 80.4111L154.901 98.0632C154.997 98.3124 155.166 98.5266 155.386 98.6775L156.596 99.5063C157.84 100.359 158.429 101.89 158.077 103.357C157.792 104.545 157.874 105.792 158.313 106.932L159.95 111.187C160.167 111.751 160.6 112.207 161.153 112.453C161.706 112.698 162.334 112.714 162.899 112.497L163.647 112.209C163.876 112.121 164.06 111.946 164.159 111.723C164.814 110.248 166.541 109.583 168.016 110.239C168.24 110.338 168.493 110.344 168.722 110.257L169.554 109.936C169.783 109.849 169.967 109.674 170.066 109.45C170.721 107.975 172.448 107.311 173.923 107.966C174.147 108.065 174.401 108.072 174.629 107.984L175.004 107.84C175.473 107.659 175.85 107.3 176.054 106.842L176.12 106.695C176.365 106.142 176.381 105.514 176.164 104.949L174.527 100.694C174.089 99.5539 173.314 98.5734 172.306 97.8827C171.062 97.0303 170.473 95.4987 170.825 94.0323L171.162 92.6277C171.227 92.3543 171.208 92.0674 171.107 91.8049L164.207 73.8688C162.857 70.3608 159.738 67.8396 156.025 67.2556C155.564 67.183 155.176 66.8696 155.009 66.4337L153.713 63.0654L155.579 62.3473L156.734 65.349C160.977 66.1571 164.516 69.1015 166.074 73.1506L172.974 91.0868C173.22 91.7272 173.267 92.4272 173.106 93.0944L172.769 94.499C172.611 95.1594 172.876 95.849 173.436 96.2328C174.779 97.1525 175.81 98.4578 176.394 99.9762L178.031 104.231C178.439 105.29 178.409 106.469 177.947 107.507L177.882 107.654C177.463 108.597 176.686 109.336 175.722 109.706L175.347 109.851C174.624 110.129 173.819 110.109 173.111 109.794C172.646 109.587 172.101 109.797 171.894 110.262C171.579 110.97 170.996 111.525 170.273 111.803L169.44 112.123C168.717 112.402 167.912 112.381 167.204 112.066C166.738 111.86 166.193 112.069 165.987 112.535C165.672 113.243 165.089 113.797 164.365 114.076L163.617 114.364C162.557 114.771 161.379 114.741 160.341 114.28C159.303 113.819 158.491 112.965 158.083 111.905L156.447 107.65C155.862 106.132 155.753 104.472 156.133 102.89C156.291 102.23 156.026 101.54 155.466 101.156L154.256 100.327C153.702 99.9475 153.276 99.4084 153.034 98.7813L146.243 81.1292C144.617 76.9026 145.364 72.1412 148.18 68.6208L147.032 65.6357L148.898 64.9176Z" fill="#395244"/>
</svg>
