<svg width="256" height="108" viewBox="0 0 256 108" fill="none" xmlns="http://www.w3.org/2000/svg">
<path fill-rule="evenodd" clip-rule="evenodd" d="M97.4212 67.9629H86.0664V71.1156H97.4212V67.9629ZM86.0664 65.9629C84.9618 65.9629 84.0664 66.8583 84.0664 67.9629V73.1156H99.4212V67.9629C99.4212 66.8583 98.5257 65.9629 97.4212 65.9629H86.0664Z" fill="#409967"/>
<path fill-rule="evenodd" clip-rule="evenodd" d="M135.521 35.2383H112.629V38.3909H135.521V35.2383ZM112.629 33.2383C111.524 33.2383 110.629 34.1337 110.629 35.2383V40.3909H137.521V35.2383C137.521 34.1337 136.626 33.2383 135.521 33.2383H112.629Z" fill="#409967"/>
<path fill-rule="evenodd" clip-rule="evenodd" d="M184.42 35.2383H161.528V38.3909H184.42V35.2383ZM161.528 33.2383C160.423 33.2383 159.528 34.1337 159.528 35.2383V40.3909H186.42V35.2383C186.42 34.1337 185.525 33.2383 184.42 33.2383H161.528Z" fill="#409967"/>
<path fill-rule="evenodd" clip-rule="evenodd" d="M220.019 67.9629H208.664V71.1156H220.019V67.9629ZM208.664 65.9629C207.559 65.9629 206.664 66.8583 206.664 67.9629V73.1156H222.019V67.9629C222.019 66.8583 221.123 65.9629 220.019 65.9629H208.664Z" fill="#409967"/>
<path fill-rule="evenodd" clip-rule="evenodd" d="M110.574 67.9629H99.2197V71.1156H110.574V67.9629ZM99.2197 65.9629C98.1152 65.9629 97.2197 66.8583 97.2197 67.9629V73.1156H112.574V67.9629C112.574 66.8583 111.679 65.9629 110.574 65.9629H99.2197Z" fill="#409967"/>
<path fill-rule="evenodd" clip-rule="evenodd" d="M158.561 35.2383H135.668V38.3909H158.561V35.2383ZM135.668 33.2383C134.563 33.2383 133.668 34.1337 133.668 35.2383V40.3909H160.561V35.2383C160.561 34.1337 159.665 33.2383 158.561 33.2383H135.668Z" fill="#409967"/>
<path fill-rule="evenodd" clip-rule="evenodd" d="M207.459 35.2383H184.566V38.3909H207.459V35.2383ZM184.566 33.2383C183.462 33.2383 182.566 34.1337 182.566 35.2383V40.3909H209.459V35.2383C209.459 34.1337 208.564 33.2383 207.459 33.2383H184.566Z" fill="#409967"/>
<path fill-rule="evenodd" clip-rule="evenodd" d="M233.175 67.9629H221.82V71.1156H233.175V67.9629ZM221.82 65.9629C220.715 65.9629 219.82 66.8583 219.82 67.9629V73.1156H235.175V67.9629C235.175 66.8583 234.279 65.9629 233.175 65.9629H221.82Z" fill="#409967"/>
<path fill-rule="evenodd" clip-rule="evenodd" d="M185.342 72.8721H133.715V70.8721H185.342V72.8721Z" fill="#395244"/>
<path fill-rule="evenodd" clip-rule="evenodd" d="M187.047 78.252H132.02V76.252H187.047V78.252Z" fill="#395244"/>
<path fill-rule="evenodd" clip-rule="evenodd" d="M255.66 107.434L0.0234378 107.434L0.0234375 105.434L255.66 105.434L255.66 107.434Z" fill="#395244"/>
<path fill-rule="evenodd" clip-rule="evenodd" d="M174.547 38.4502L195.106 107.434H209.503L188.943 38.4502H174.547ZM177.23 40.4502L196.597 105.434H206.82L187.453 40.4502H177.23Z" fill="#395244"/>
<path fill-rule="evenodd" clip-rule="evenodd" d="M144.219 38.4502L123.66 107.434H109.263L129.822 38.4502H144.219ZM141.536 40.4502L122.169 105.434H111.946L131.313 40.4502H141.536Z" fill="#395244"/>
<path fill-rule="evenodd" clip-rule="evenodd" d="M119.364 73.001H85.8828V76.1406H118.63L119.364 73.001ZM83.8828 71.001V78.1406H120.217L121.885 71.001H83.8828Z" fill="#395244"/>
<path fill-rule="evenodd" clip-rule="evenodd" d="M199.694 73H233.175V76.1396H200.427L199.694 73ZM235.175 71V78.1396H198.841L197.173 71H235.175Z" fill="#395244"/>
<path fill-rule="evenodd" clip-rule="evenodd" d="M209.503 40.3906L110.629 40.3906L110.629 38.3906L209.503 38.3906L209.503 40.3906Z" fill="#395244"/>
<path fill-rule="evenodd" clip-rule="evenodd" d="M171.281 20.915V28.2382C171.281 29.895 172.624 31.2382 174.281 31.2382H179.416C181.073 31.2382 182.416 29.895 182.416 28.2382V20.915H171.281ZM170.281 18.915C169.729 18.915 169.281 19.3628 169.281 19.915V28.2382C169.281 30.9996 171.52 33.2382 174.281 33.2382H179.416C182.177 33.2382 184.416 30.9996 184.416 28.2382V19.915C184.416 19.3628 183.968 18.915 183.416 18.915H170.281Z" fill="#395244"/>
<path fill-rule="evenodd" clip-rule="evenodd" d="M160.25 31.2383L160.25 11.0117C160.25 9.35482 158.907 8.01167 157.25 8.01167L152.115 8.01167C150.458 8.01167 149.115 9.35481 149.115 11.0117L149.115 31.2383L160.25 31.2383ZM161.25 33.2383C161.802 33.2383 162.25 32.7906 162.25 32.2383L162.25 11.0117C162.25 8.25025 160.011 6.01167 157.25 6.01167L152.115 6.01167C149.354 6.01167 147.115 8.25024 147.115 11.0117L147.115 32.2383C147.115 32.7906 147.563 33.2383 148.115 33.2383L161.25 33.2383Z" fill="#395244"/>
<path fill-rule="evenodd" clip-rule="evenodd" d="M158.047 6.03613L158.047 2.00013L151.32 2.00014L151.32 6.03613L158.047 6.03613ZM159.047 8.03613C159.599 8.03613 160.047 7.58842 160.047 7.03613L160.047 2.00013C160.047 0.895566 159.151 0.000135343 158.047 0.000135247L151.32 0.000134659C150.216 0.000134562 149.32 0.895566 149.32 2.00013L149.32 7.03613C149.32 7.58842 149.768 8.03613 150.32 8.03613L159.047 8.03613Z" fill="#395244"/>
<path fill-rule="evenodd" clip-rule="evenodd" d="M185.789 23.4844H183.489V21.4844H185.789C187.37 21.4844 188.753 22.5499 189.156 24.079C189.537 25.524 188.953 27.0508 187.705 27.8731L183.714 30.5033L182.614 28.8334L186.604 26.2032C187.135 25.8532 187.384 25.2035 187.222 24.5885C187.05 23.9378 186.462 23.4844 185.789 23.4844Z" fill="#395244"/>
<path fill-rule="evenodd" clip-rule="evenodd" d="M174.166 4.41403C174.693 4.57951 174.986 5.1408 174.821 5.66771L174.192 7.67152C173.87 8.69609 174.123 9.81454 174.856 10.6001C176.426 12.2851 176.638 14.8268 175.367 16.748L175.039 17.243C174.735 17.7037 174.114 17.8301 173.654 17.5254C173.193 17.2207 173.066 16.6003 173.371 16.1396L173.699 15.6446C174.46 14.4944 174.333 12.9726 173.393 11.9638C172.17 10.6517 171.746 8.78359 172.283 7.07227L172.913 5.06847C173.078 4.54155 173.64 4.24855 174.166 4.41403Z" fill="#F9EA7E"/>
<path fill-rule="evenodd" clip-rule="evenodd" d="M179.253 0.344696C179.78 0.510174 180.073 1.07147 179.907 1.59838L179.278 3.60218C178.956 4.62676 179.21 5.74521 179.942 6.53077C181.513 8.21572 181.724 10.7575 180.453 12.6786L180.126 13.1737C179.821 13.6343 179.201 13.7607 178.74 13.456C178.279 13.1513 178.153 12.5309 178.458 12.0703L178.785 11.5752C179.546 10.425 179.419 8.90326 178.479 7.89447C177.256 6.58237 176.832 4.71425 177.37 3.00293L177.999 0.99913C178.165 0.472219 178.726 0.179219 179.253 0.344696Z" fill="#F9EA7E"/>
<path fill-rule="evenodd" clip-rule="evenodd" d="M149.191 22.2695L160.174 22.2695L160.174 24.2695L149.191 24.2695L149.191 22.2695Z" fill="#409967"/>
<path fill-rule="evenodd" clip-rule="evenodd" d="M155.003 17.4905C155.786 17.4905 156.421 16.8556 156.421 16.0724C156.421 15.2892 155.786 14.6543 155.003 14.6543C154.22 14.6543 153.585 15.2892 153.585 16.0724C153.585 16.8556 154.22 17.4905 155.003 17.4905ZM155.003 19.4905C156.891 19.4905 158.421 17.9601 158.421 16.0724C158.421 14.1846 156.891 12.6543 155.003 12.6543C153.115 12.6543 151.585 14.1846 151.585 16.0724C151.585 17.9601 153.115 19.4905 155.003 19.4905Z" fill="#F9EA7E"/>
<path fill-rule="evenodd" clip-rule="evenodd" d="M176.76 27.0025C177.367 27.0025 177.859 26.5103 177.859 25.9031C177.859 25.2959 177.367 24.8037 176.76 24.8037C176.152 24.8037 175.66 25.2959 175.66 25.9031C175.66 26.5103 176.152 27.0025 176.76 27.0025ZM176.76 29.0025C178.471 29.0025 179.859 27.6149 179.859 25.9031C179.859 24.1914 178.471 22.8037 176.76 22.8037C175.048 22.8037 173.66 24.1914 173.66 25.9031C173.66 27.6149 175.048 29.0025 176.76 29.0025Z" fill="#409967"/>
<path fill-rule="evenodd" clip-rule="evenodd" d="M34.8716 74.3281C34.8716 73.7758 35.3193 73.3281 35.8716 73.3281H42.0611C42.6134 73.3281 43.0611 73.7758 43.0611 74.3281C43.0611 74.8804 42.6134 75.3281 42.0611 75.3281H35.8716C35.3193 75.3281 34.8716 74.8804 34.8716 74.3281Z" fill="#409967"/>
<path fill-rule="evenodd" clip-rule="evenodd" d="M33.8828 54.5146C34.4351 54.5146 34.8828 54.9624 34.8828 55.5146L34.8828 61.7042C34.8828 62.2565 34.4351 62.7042 33.8828 62.7042C33.3305 62.7042 32.8828 62.2565 32.8828 61.7042L32.8828 55.5146C32.8828 54.9624 33.3305 54.5146 33.8828 54.5146Z" fill="#F9EA7E"/>
<path fill-rule="evenodd" clip-rule="evenodd" d="M37.1123 54.5146C37.6646 54.5146 38.1123 54.9624 38.1123 55.5146L38.1123 61.7042C38.1123 62.2565 37.6646 62.7042 37.1123 62.7042C36.56 62.7042 36.1123 62.2565 36.1123 61.7042L36.1123 55.5146C36.1123 54.9624 36.56 54.5146 37.1123 54.5146Z" fill="#F9EA7E"/>
<path fill-rule="evenodd" clip-rule="evenodd" d="M34.8716 80.6787C34.8716 80.1264 35.3193 79.6787 35.8716 79.6787H42.0611C42.6134 79.6787 43.0611 80.1264 43.0611 80.6787C43.0611 81.231 42.6134 81.6787 42.0611 81.6787H35.8716C35.3193 81.6787 34.8716 81.231 34.8716 80.6787Z" fill="#409967"/>
<path fill-rule="evenodd" clip-rule="evenodd" d="M34.8716 87.084C34.8716 86.5317 35.3193 86.084 35.8716 86.084H42.0611C42.6134 86.084 43.0611 86.5317 43.0611 87.084C43.0611 87.6363 42.6134 88.084 42.0611 88.084H35.8716C35.3193 88.084 34.8716 87.6363 34.8716 87.084Z" fill="#409967"/>
<path fill-rule="evenodd" clip-rule="evenodd" d="M31.7773 93.1699C31.7773 92.6176 32.2251 92.1699 32.7773 92.1699L52.5692 92.1699C53.1214 92.1699 53.5692 92.6176 53.5692 93.1699C53.5692 93.7222 53.1214 94.1699 52.5692 94.1699L32.7773 94.1699C32.2251 94.1699 31.7773 93.7222 31.7773 93.1699Z" fill="#395244"/>
<path fill-rule="evenodd" clip-rule="evenodd" d="M53.8142 66.5137C54.3665 66.5137 54.8142 66.9614 54.8142 67.5137V75.6115C54.8142 77.1618 53.6789 78.4784 52.1454 78.7062C51.822 78.7543 51.5353 78.9402 51.3595 79.216L49.0973 82.7647C48.8004 83.2304 48.1822 83.3672 47.7165 83.0703C47.2508 82.7735 47.1139 82.1553 47.4108 81.6896L49.6731 78.1408C50.1603 77.3766 50.9549 76.8612 51.8514 76.728C52.4047 76.6458 52.8142 76.1708 52.8142 75.6115V67.5137C52.8142 66.9614 53.262 66.5137 53.8142 66.5137Z" fill="#409967"/>
<path fill-rule="evenodd" clip-rule="evenodd" d="M75.3594 57.041C75.3594 56.4887 75.8071 56.041 76.3594 56.041H87.0915C87.6438 56.041 88.0915 56.4887 88.0915 57.041C88.0915 57.5933 87.6438 58.041 87.0915 58.041H76.3594C75.8071 58.041 75.3594 57.5933 75.3594 57.041Z" fill="#409967"/>
<path fill-rule="evenodd" clip-rule="evenodd" d="M65.1854 49.7958C65.1854 48.397 66.5846 47.4302 67.893 47.9251L74.6835 50.4936C76.2391 51.082 77.2684 52.5717 77.2684 54.2349V59.8073C77.2684 61.4371 76.2795 62.904 74.7687 63.5153L67.9356 66.2802C66.6208 66.8122 65.1854 65.8446 65.1854 64.4262V62.8297H60.9476V64.1114C60.9476 65.2159 60.0522 66.1114 58.9476 66.1114H55.0052V67.2157C55.0052 68.3202 54.1097 69.2157 53.0052 69.2157H49.064V84.9317C49.064 89.0799 51.8992 92.6908 55.929 93.6748L62.793 95.351C63.6885 95.5697 64.3185 96.3721 64.3185 97.2939V105.442C64.3185 106.547 63.4231 107.442 62.3185 107.442H36.5512C32.1196 107.442 28.5271 103.85 28.5271 99.4182C28.5271 97.2901 29.3725 95.2491 30.8773 93.7443L31.5251 93.0965C33.0697 91.5519 33.9374 89.4571 33.9374 87.2728V72.784C33.9374 70.8132 32.3398 69.2157 30.3691 69.2157C27.2938 69.2157 24.8008 66.7226 24.8008 63.6474V58.7255C24.8008 52.932 29.4974 48.2354 35.2909 48.2354H58.9476C60.0522 48.2354 60.9476 49.1308 60.9476 50.2354V51.1622H65.1854V49.7958ZM65.1854 53.1622H60.9476V60.8297H65.1854V53.1622ZM67.1854 49.7958L73.9759 52.3642C74.7537 52.6584 75.2684 53.4033 75.2684 54.2349V59.8073C75.2684 60.6222 74.7739 61.3557 74.0185 61.6613L67.1854 64.4262V49.7958ZM35.2909 50.2354C30.6019 50.2354 26.8008 54.0365 26.8008 58.7255V63.6474C26.8008 65.6181 28.3984 67.2157 30.3691 67.2157C33.4444 67.2157 35.9374 69.7087 35.9374 72.784V87.2728C35.9374 89.9875 34.859 92.5911 32.9394 94.5107L32.2915 95.1585C31.1618 96.2882 30.5271 97.8205 30.5271 99.4182C30.5271 102.745 33.2242 105.442 36.5512 105.442H62.3185V97.2939L55.4545 95.6177C50.5293 94.415 47.064 90.0017 47.064 84.9317V69.2157C47.064 68.1111 47.9595 67.2157 49.064 67.2157H53.0052V66.1114C53.0052 65.0068 53.9006 64.1114 55.0052 64.1114H58.9476V50.2354H35.2909Z" fill="#395244"/>
</svg>
