<svg width="255" height="105" viewBox="0 0 255 105" fill="none" xmlns="http://www.w3.org/2000/svg">
<g clip-path="url(#clip0_405:5409)">
<line x1="-1.53396e-07" y1="104.15" x2="254.94" y2="104.15" stroke="#34493D" stroke-width="2"/>
<path d="M200.117 88.2361L196.483 95.866C195.806 97.2877 194.303 98.1244 192.738 97.9505V97.9505C191.368 97.7983 190.028 98.4204 189.26 99.5645L186.176 104.159M197.238 70.5771L194.798 82.6921C193.872 87.2852 190.167 90.8054 185.533 91.4942V91.4942C182.031 92.0146 178.987 94.1714 177.335 97.3021L173.829 103.945M167.322 93.9393L169.551 88.6968C170.883 85.563 173.865 83.4448 177.262 83.2183V83.2183C181.442 82.9396 184.882 79.8233 185.571 75.6911L186.423 70.5771M175.102 70.5771V70.5771C175.102 74.7764 171.698 78.1807 167.499 78.1807H166.654" stroke="#409967" stroke-width="2"/>
<rect x="-1" y="1" width="33.6473" height="33.6473" transform="matrix(-1 0 0 1 199.484 69.501)" stroke="#34493D" stroke-width="2"/>
<path d="M155.125 88.2361L151.491 95.866C150.814 97.2877 149.311 98.1244 147.745 97.9505V97.9505C146.376 97.7983 145.036 98.4204 144.268 99.5645L141.184 104.159M152.246 70.5771L149.805 82.6921C148.88 87.2852 145.175 90.8054 140.541 91.4942V91.4942C137.039 92.0146 133.995 94.1714 132.342 97.3021L128.837 103.945M122.33 93.9393L124.559 88.6968C125.891 85.563 128.873 83.4448 132.27 83.2183V83.2183C136.45 82.9396 139.89 79.8233 140.579 75.6911L141.431 70.5771M130.11 70.5771V70.5771C130.11 74.7764 126.706 78.1807 122.507 78.1807H121.662" stroke="#409967" stroke-width="2"/>
<rect x="-1" y="1" width="33.6473" height="33.6473" transform="matrix(-1 0 0 1 154.492 69.501)" stroke="#34493D" stroke-width="2"/>
<path d="M174.172 54.3455L170.538 61.9754C169.861 63.3971 168.357 64.2338 166.792 64.0599V64.0599C165.423 63.9077 164.083 64.5298 163.315 65.6739L160.231 70.2685M171.292 36.6865L168.852 48.8015C167.927 53.3945 164.222 56.9148 159.587 57.6036V57.6036C156.086 58.124 153.042 60.2808 151.389 63.4115L147.883 70.0541M141.377 60.0487L143.606 54.8062C144.938 51.6724 147.919 49.5542 151.317 49.3277V49.3277C155.497 49.049 158.937 45.9327 159.626 41.8005L160.478 36.6865M149.157 36.6865V36.6865C149.157 40.8858 145.753 44.29 141.554 44.29H140.709" stroke="#409967" stroke-width="2"/>
<rect x="-1" y="1" width="33.6473" height="33.6473" transform="matrix(-1 0 0 1 173.539 35.6104)" stroke="#34493D" stroke-width="2"/>
<path d="M123.891 19.291L111.409 41.5585" stroke="#F9EA7E" stroke-width="2" stroke-linecap="round"/>
<path d="M84.9883 45.3477L72.5064 67.6152" stroke="#409967" stroke-width="2" stroke-linecap="round"/>
<path d="M128.961 35.6113L116.479 57.8788" stroke="#409967" stroke-width="2" stroke-linecap="round"/>
<path d="M101.574 12.3057L89.0923 34.5732" stroke="#409967" stroke-width="2" stroke-linecap="round"/>
<path d="M60.0469 70.5801L47.565 92.8476" stroke="#F9EA7E" stroke-width="2" stroke-linecap="round"/>
<path d="M92.3379 69.5029L80.2816 91.0194" stroke="#409967" stroke-width="2" stroke-linecap="round"/>
<path d="M144.141 14.6602L138.395 24.7295" stroke="#409967" stroke-width="2" stroke-linecap="round"/>
<path d="M107.828 51.0352L101.579 61.928" stroke="#409967" stroke-width="2" stroke-linecap="round"/>
<path d="M80.2734 30.1641L74.0241 41.0569" stroke="#409967" stroke-width="2" stroke-linecap="round"/>
<path d="M112.395 67.0674L99.9126 89.3349" stroke="#F9EA7E" stroke-width="2" stroke-linecap="round"/>
<rect x="122.051" y="1.89057" width="32.9895" height="98.353" transform="rotate(29.2726 122.051 1.89057)" stroke="#34493D" stroke-width="2"/>
<rect x="84.6763" y="0.87787" width="32.9895" height="98.353" transform="rotate(29.2726 84.6763 0.87787)" stroke="#34493D" stroke-width="2"/>
</g>
<defs>
<clipPath id="clip0_405:5409">
<rect width="255" height="105" fill="white"/>
</clipPath>
</defs>
</svg>
